<svg version="1.2" baseProfile="tiny-ps" xmlns="http://www.w3.org/2000/svg" viewBox="0 0 1947 370" width="1947" height="370">
	<title>NVIDIA_logo-svg</title>
	<style>
		tspan { white-space:pre }
		.shp0 { fill: #ffffff } 
		.shp1 { fill: #76b900 } 
	</style>
	<path id="Layer" fill-rule="evenodd" class="shp0" d="M1257.22 69.71L1257.22 312.27L1188.76 312.27L1188.76 69.71L1257.22 69.71ZM773.04 69.3C832.67 69.3 893.73 82.25 893.73 178.04L893.73 312.06L826.7 312.06L826.7 201.27C826.7 167.35 822.39 148.64 811.49 137.13C803.06 128.09 790.72 123.77 773.04 123.77L719.18 123.57L719.18 312.06L650.1 312.06L650.1 69.3L773.04 69.3ZM1395.18 69.71C1449.87 69.71 1486.46 76.29 1511.55 110.2C1525.73 129.12 1533.75 159.54 1533.75 193.66C1533.75 230.87 1524.29 264.99 1509.49 280.4C1488.73 302.4 1469.4 312.27 1410.19 312.27L1299.17 312.27L1299.17 69.71L1395.18 69.71ZM1367.01 260.26L1396.41 260.26C1439.18 260.26 1466.73 240.94 1466.73 191.19C1466.73 141.45 1439.18 122.33 1396.41 122.33L1367.01 122.33L1367.01 260.26ZM1159.98 69.71L1081.03 312.27L982.34 312.27L904.21 69.71L978.23 69.71L1032.92 261.9L1090.07 69.71L1159.98 69.71ZM1565.82 69.71L1634.29 69.71L1634.29 312.27L1565.82 312.27L1565.82 69.71ZM1849.34 69.71L1945.77 311.85L1872.37 311.85L1857.98 269.1L1744.9 269.1L1729.68 312.06L1662.25 312.06L1757.85 69.71L1849.34 69.71ZM1759.5 227.37L1843.79 227.37L1802.26 113.9L1759.5 227.37Z" />
	<path id="Layer" fill-rule="evenodd" class="shp1" d="M558.61 -0.18L558.61 369.2L208.68 369.2L208.68 325.83C216.08 326.65 223.48 327.07 231.3 327.07C312.3 327.07 455.19 285.75 516.46 234.36C507.41 225.32 463.62 204.55 452.93 195.92C388.37 251.42 321.76 298.49 229.65 298.49C222.66 298.49 215.47 297.88 208.47 297.05L208.47 266.22C216.9 267.66 225.33 268.48 233.97 268.48C332.86 268.48 427.85 152.96 427.85 152.96C427.85 152.96 344.99 44.63 218.14 48.95L208.27 49.57L208.27 -0.18L558.61 -0.18ZM218.14 76.29C309.42 73.41 369.25 154.81 369.25 154.81C369.25 154.81 304.69 244.43 235.41 244.43C226.16 244.43 217.11 242.99 208.47 240.12L208.47 138.98C244.04 143.3 251.24 158.92 272.42 194.48L319.91 154.6C319.91 154.6 285.16 109.18 226.77 109.18C220.61 108.97 214.44 109.38 208.27 110L208.27 76.71C107.46 84.61 57.16 158.92 57.16 158.92C57.16 158.92 95.6 283.08 208.27 297.05L208.27 325.83C54.69 311.44 0 153.17 0 153.17C0 153.17 96.63 58.61 208.47 49.57L208.47 76.69C211.7 76.48 214.92 76.29 218.14 76.29ZM208.27 266.43C123.15 251.22 99.51 162.62 99.51 162.62C99.51 162.62 140.42 117.4 208.27 110L208.27 138.78L208.06 138.78C172.5 134.46 144.53 167.76 144.53 167.76C144.53 167.76 160.37 223.88 208.27 240.12L208.27 266.43Z" />
</svg>